<?xml version="1.0" encoding="UTF-8" standalone="no"?>
<svg
   xmlns:dc="http://purl.org/dc/elements/1.1/"
   xmlns:cc="http://creativecommons.org/ns#"
   xmlns:rdf="http://www.w3.org/1999/02/22-rdf-syntax-ns#"
   xmlns:svg="http://www.w3.org/2000/svg"
   xmlns="http://www.w3.org/2000/svg"
   viewBox="0 0 1065.92 325.10666"
   height="325.10666"
   width="1065.92"
   xml:space="preserve"
   id="svg2"
   version="1.1"><metadata
     id="metadata8"><rdf:RDF><cc:Work
         rdf:about=""><dc:format>image/svg+xml</dc:format><dc:type
           rdf:resource="http://purl.org/dc/dcmitype/StillImage" /></cc:Work></rdf:RDF></metadata><defs
     id="defs6" /><g
     transform="matrix(1.3333333,0,0,-1.3333333,0,325.10667)"
     id="g10"><g
       transform="scale(0.1)"
       id="g12"><path
         id="path14"
         style="fill:#ffffff;fill-opacity:1;fill-rule:evenodd;stroke:none"
         d="m 6044.81,1697.96 c -82.35,47.67 -177.98,74.95 -279.95,74.95 -309.13,0 -559.85,-250.66 -559.85,-559.83 V 89.8711 h 284.85 V 1213.08 c 0,151.86 123.06,275.02 275,275.02 50.13,0 97.1,-13.39 137.56,-36.79 z m 972.31,-111.85 c -102.54,114.64 -251.57,186.8 -417.44,186.8 -309.12,0 -559.82,-250.66 -559.82,-559.83 V 89.8711 H 6324.7 V 1213.08 c 0,151.86 123.06,275.02 274.98,275.02 151.94,0 275.04,-123.09 275.04,-275.02 V 89.8711 h 284.79 V 1213.08 c 0,151.86 123.1,275.02 275.02,275.02 151.92,0 275.02,-123.09 275.02,-275.02 V 89.8711 h 284.81 V 1213.08 c 0,309.09 -250.69,559.83 -559.83,559.83 -165.85,0 -314.9,-72.16 -417.41,-186.8 m -3565.66,515.63 116.55,261.56 c -82.37,47.66 -177.97,74.96 -279.93,74.96 -309.14,0 -559.86,-250.69 -559.86,-559.84 V 89.8711 h 284.84 V 1451.32 h 172.71 l 126.64,284.21 h -299.35 v 142.89 c 0,151.92 123.08,275.03 275.02,275.03 50.11,0 97.08,-13.38 137.54,-36.77 z M 311.172,1360 l 30.164,33.35 c 53.297,57.44 139.375,94.75 236.492,94.75 161.797,0 292.945,-103.56 292.945,-231.32 L 870.211,1150.7 442.715,1036.14 C 165.949,962.012 0,754.859 0,516.129 0,231.09 258.418,0 577.223,0 896.031,0 1154.45,231.09 1154.45,516.129 l 0.56,740.651 c 0,285.04 -258.416,516.13 -577.221,516.13 -203.375,0 -382.117,-94.05 -484.9257,-236.11 z M 514.914,760.199 C 383.949,725.082 284.273,625.43 284.273,516.129 c 0,-127.75 131.153,-231.277 292.95,-231.277 161.797,0 292.945,103.617 292.961,231.277 l 0.027,339.383 z M 2494.72,2348.41 V 516.129 C 2494.72,231.09 2236.3,0 1917.48,0 1598.68,0 1340.26,231.09 1340.26,516.129 v 740.651 c 0,285.04 258.42,516.13 577.22,516.13 106.96,0 207.11,-26.04 293,-71.37 v 646.87 z M 2210.48,1256.78 c 0,127.76 -131.15,231.32 -292.95,231.32 -161.8,0 -292.95,-103.56 -292.95,-231.32 V 516.129 c 0,-127.75 131.15,-231.277 292.95,-231.277 161.8,0 292.95,103.527 292.95,231.277 v 740.651 m 2325.12,76.81 c -56.57,50.94 -35.13,174.62 43.76,318.76 272.53,-158.79 440.13,-450.46 440.13,-765.889 C 5019.49,396.898 4622.6,0 4133.03,0 c -489.56,0 -886.44,396.898 -886.44,886.461 0,489.579 396.88,886.449 886.44,886.449 91.82,0 183.07,-14.26 270.52,-42.25 -54.32,-155.1 -131.9,-253.82 -207.62,-245.84 -20.9,2.17 -41.9,3.28 -62.9,3.28 -332.28,0 -601.62,-269.35 -601.62,-601.639 0,-332.281 269.34,-601.609 601.62,-601.609 332.29,0 601.65,269.328 601.65,601.609 0,170.519 -72.36,333.019 -199.08,447.129" /></g></g></svg>